<?xml version="1.0" encoding="utf-8"?>
<!-- Generator: Adobe Illustrator 24.1.1, SVG Export Plug-In . SVG Version: 6.00 Build 0)  -->
<svg version="1.1" id="Capa_1" xmlns="http://www.w3.org/2000/svg" xmlns:xlink="http://www.w3.org/1999/xlink" x="0px" y="0px"
	 viewBox="0 0 595.3 450.4" style="enable-background:new 0 0 595.3 450.4;" xml:space="preserve">
<style type="text/css">
	.st0{fill:#FFFFFF;}
</style>
<g>
	<path class="st0" d="M404.8,15.6c-35.8,0-71.7,0-107.5,0c-18.1,0-36.1,0-54.2,0c18.1,0,36.1,0,54.2,0
		C333.1,15.6,368.9,15.6,404.8,15.6z"/>
	<path class="st0" d="M584,87c0-41.1-30.5-71.4-71.7-71.4c-35.8,0-71.7,0-107.5,0c-35.8,0-71.7,0-107.5,0c-18.1,0-36.1,0-54.2,0
		c-54.2,0-108.4,0-162.6-0.1c-13.7,0-26.5,2.9-37.8,10.4C23.4,38.8,11.2,55.6,11.3,80.4c0.4,98.9,0.1,197.9,0.3,296.8
		c0,5.2,1,10.6,2.9,15.4c10.1,26.6,35.8,44,64.7,44c144.5,0,289.1,0.1,433.6,0c40.7,0,71.2-30.5,71.3-71.2
		C584,272.6,584,179.8,584,87z M497.5,69.2c-2.1,1.8-3.4,3-4.7,3.9c-63,44.7-126,89.4-189,134.2c-2.6,1.9-4.5,2.6-7.4,0.3
		c-59.9-45.5-120-90.8-180-136.2c-0.5-0.4-0.9-0.8-2.7-2.3C242.3,69.2,369.3,69.2,497.5,69.2z M530.6,363.5c0,14.1-6,19.9-20.3,19.9
		c-142.5,0-285,0-427.5,0c-14.5,0-20.3-5.8-20.3-20.5c0-85.9,0-171.8,0-257.6c0-2,0.2-3.9,0.4-7.4
		c79.2,59.9,157.3,118.9,235.8,178.3c76.8-54.5,153.5-109,231.4-164.2c0.2,3,0.5,4.9,0.5,6.8C530.7,200.3,530.7,281.9,530.6,363.5z"
		/>
</g>
</svg>
