<?xml version="1.0" encoding="utf-8"?>
<!-- Generator: Adobe Illustrator 24.1.1, SVG Export Plug-In . SVG Version: 6.00 Build 0)  -->
<svg version="1.1" id="Capa_1" xmlns="http://www.w3.org/2000/svg" xmlns:xlink="http://www.w3.org/1999/xlink" x="0px" y="0px"
	 viewBox="0 0 1148 1716.5" style="enable-background:new 0 0 1148 1716.5;" xml:space="preserve">
<style type="text/css">
	.st0{fill:#FFFFFF;}
	.st1{fill:#FFF200;}
</style>
<path class="st0" d="M574,337.7c-303.9,0-551,247.1-551,551s247.1,551,551,551s551-247.1,551-551C1125,585.1,877.9,337.7,574,337.7z
	"/>
<path d="M574,1463C257.3,1463,0,1205.4,0,889s257.6-574,574-574c316.7,0,574,257.6,574,574S890.7,1463,574,1463z M574,337.7
	c-303.9,0-551,247.1-551,551s247.1,551,551,551s551-247.1,551-551C1125,585.1,877.9,337.7,574,337.7L574,337.7z"/>
<path d="M936.1,173.6L708.5,600.3L685.7,643l47.4-9.2l97.6-18.9L627.2,940.3l-26.1,41.6l48.5-6.4l67.1-8.9l-519.9,584.5l205.5-377.7
	l21.6-39.7l-44.6,5.8l-85.1,10.8l208.2-344.7l26.6-43.8l-50.5,9.4l-65.7,12.2L936.1,173.6z M1054.8,0L352.7,818l130.1-24.1
	l-232.9,385.7l132.5-16.9L80.7,1716.5l694.6-781.1l-128.7,16.9L878.2,582l-149.5,29.1L1054.8,0z"/>
<path class="st1" d="M936.1,173.6L708.5,600.3L685.7,643l47.4-9.2l97.6-18.9L627.2,940.3l-26.1,41.6l48.5-6.4l67.1-8.9l-519.9,584.5
	l205.5-377.7l21.6-39.7l-44.6,5.8l-85.1,10.8l208.2-344.7l26.6-43.8l-50.5,9.4l-65.7,12.2L936.1,173.6z"/>
<path d="M886.5,1386.5h12.2v1.7h-5v13.3h-1.9v-13.3h-5v-1.7H886.5z M912.9,1401.4v-8.9v-3.9l-4.2,12.8h-1.9l-4.2-12.5v12.5h-1.9v-15
	h2.8l4.2,12.8l4.2-12.8h2.8v15L912.9,1401.4z"/>
</svg>
